<svg xmlns="http://www.w3.org/2000/svg" xmlns:xlink="http://www.w3.org/1999/xlink" width="200" zoomAndPan="magnify" viewBox="0 0 150 74.999997" height="100" preserveAspectRatio="xMidYMid meet" version="1.0"><defs><g/><clipPath id="28743da118"><rect x="0" width="150" y="0" height="67"/></clipPath></defs><g transform="matrix(1, 0, 0, 1, 0, 8)"><g clip-path="url(#28743da118)"><g fill="#000000" fill-opacity="1"><g transform="translate(0.000003, 55.58591)"><g><path d="M 52.625 -0.078125 L 43.140625 -0.078125 L 40.578125 -5.90625 C 40.523438 -5.90625 40.488281 -5.878906 40.46875 -5.828125 C 40.445312 -5.785156 40.410156 -5.765625 40.359375 -5.765625 C 35.984375 -1.972656 30.945312 -0.078125 25.25 -0.078125 C 20.914062 -0.078125 16.898438 -1.207031 13.203125 -3.46875 C 9.503906 -5.726562 6.582031 -8.828125 4.4375 -12.765625 C 2.300781 -16.710938 1.234375 -20.992188 1.234375 -25.609375 C 1.234375 -30.234375 2.300781 -34.503906 4.4375 -38.421875 C 6.582031 -42.335938 9.503906 -45.4375 13.203125 -47.71875 C 16.898438 -50.007812 20.914062 -51.15625 25.25 -51.15625 C 30.3125 -51.15625 34.882812 -49.632812 38.96875 -46.59375 C 43.0625 -43.550781 45.984375 -39.578125 47.734375 -34.671875 L 38.390625 -34.671875 C 36.972656 -37.097656 35.109375 -39.039062 32.796875 -40.5 C 30.492188 -41.96875 27.976562 -42.703125 25.25 -42.703125 C 20.96875 -42.703125 17.316406 -41.035156 14.296875 -37.703125 C 11.285156 -34.367188 9.78125 -30.335938 9.78125 -25.609375 C 9.78125 -20.890625 11.285156 -16.863281 14.296875 -13.53125 C 17.316406 -10.207031 20.96875 -8.546875 25.25 -8.546875 C 29.820312 -8.546875 33.644531 -10.414062 36.71875 -14.15625 C 36.71875 -14.15625 36.738281 -14.179688 36.78125 -14.234375 C 36.832031 -14.285156 36.859375 -14.332031 36.859375 -14.375 L 31.96875 -25.546875 L 41.375 -25.546875 Z M 52.625 -0.078125 "/></g></g></g><g fill="#000000" fill-opacity="1"><g transform="translate(49.487566, 55.58591)"><g><path d="M 16.421875 0.296875 L 16.421875 -42.265625 L -0.21875 -42.265625 L -0.21875 -51.09375 L 42.109375 -51.09375 L 42.109375 -42.265625 L 25.328125 -42.265625 L 25.328125 0.296875 Z M 16.421875 0.296875 "/></g></g></g><g fill="#000000" fill-opacity="1"><g transform="translate(91.457109, 55.58591)"><g><path d="M 12.109375 -35.984375 L 12.109375 0 L 3.28125 0 L 3.28125 -51.09375 L 16.28125 -51.09375 L 29.046875 -14.09375 L 29.265625 -13.5 L 29.40625 -14.09375 L 42.1875 -51.09375 L 55.171875 -51.09375 L 55.171875 0 L 46.34375 0 L 46.34375 -35.984375 L 33.9375 0 L 24.515625 0 Z M 12.109375 -35.984375 "/></g></g></g></g></g></svg>